# Blender v2.76 (sub 0) OBJ File: 'stone.blend'
# www.blender.org
o obsidian
v 0.645960 -1.623707 -0.662126
v 0.539516 0.198952 -1.026819
v 0.982872 0.338040 -0.699291
v 1.137848 -0.873340 -0.271266
v 0.641176 -1.232569 0.538124
v 1.128290 -1.002416 0.264242
v 0.876691 -0.630796 0.713308
v 0.644975 1.139404 -0.682742
v 0.821087 -1.885243 -0.019977
v -1.193906 5.374603 0.151696
v -1.039760 4.710150 0.640567
v -0.440066 5.184364 0.174823
v -0.734945 4.908927 -0.025786
v 0.741333 2.876615 0.575679
v 0.924932 2.294122 0.342787
v 0.848336 2.661529 0.084968
v -1.134014 3.785242 0.503694
v 1.307614 0.094398 -0.122869
v 1.208072 0.903013 -0.006487
v 1.230343 0.794293 0.181773
v 0.160954 3.360011 -0.578356
v -0.078666 4.159495 -0.383925
v 0.374548 3.485720 -0.259157
v 0.083361 2.578483 -0.705899
v 0.696022 2.314592 0.737595
v 1.046744 1.376786 0.414666
v 1.120504 0.879679 -0.314509
v -0.318287 4.958979 -0.189493
v -0.275984 4.443251 -0.203268
v -0.594475 3.039800 0.992031
v -0.395085 0.966493 0.953066
v -0.285964 1.773341 0.948037
v -1.204202 2.904117 -0.175305
v -1.199054 4.139360 -0.011804
v -0.946813 3.111006 -0.368122
v -0.663447 0.361243 0.369797
v 0.213494 -1.349162 0.291785
v -0.427794 -0.096008 0.896433
v -0.443538 4.027531 0.536911
v -0.176843 2.580189 0.943008
v 0.095561 4.273963 0.672709
v 0.405423 -0.582741 0.854149
v 0.650710 1.752568 0.899511
v 0.763701 0.560886 0.806409
v 1.001433 0.814763 0.576581
v 0.005768 1.796954 -0.833440
v -0.135108 3.120102 -0.518353
v 1.352155 -0.123042 0.253652
v 0.588141 3.611429 0.060043
v 0.674455 3.124812 -0.081505
v 0.847081 2.151578 -0.364601
v 0.760768 2.638195 -0.223053
v 1.020963 1.688295 -0.198127
v 0.094062 4.257354 0.532933
v 0.204737 -1.246143 -0.318836
v 0.216960 0.269775 -0.922914
v 0.933395 1.664961 -0.506149
v 0.114290 0.998724 0.898578
v 0.236934 2.166378 0.921259
v 0.589388 1.168741 0.888170
v 0.641057 -0.606769 0.783728
v -0.806669 1.725044 0.657341
v -1.067785 4.860426 -0.026463
v 0.005169 0.191876 0.903607
v -0.092233 0.674474 -0.880026
v -0.648217 1.789295 -0.527665
v -0.390828 1.996185 -0.720483
v -0.636003 0.970709 -0.343615
v -0.341827 2.557425 -0.697190
v -0.971777 1.837028 0.097894
v -0.689423 3.317896 -0.560940
v -0.482703 3.880573 -0.382104
v 1.114423 -0.376919 0.483480
v 0.547175 2.512486 -0.542253
v 0.134927 4.285204 -0.064725
v 0.528067 0.584914 0.876830
v 0.466745 0.001087 0.865489
v 0.615223 0.280986 0.835949
v 1.108531 1.711629 0.109894
v -0.941664 4.346250 -0.204622
v -0.815544 3.832073 -0.382781
v -0.775244 4.370500 -0.204283
v -0.057515 3.901631 -0.390812
v 0.610815 2.818649 -0.311879
vt 0.076561 0.479618
vt 0.239619 0.316961
vt 0.289562 0.369616
vt 0.196582 0.499971
vt 0.235952 0.666826
vt 0.223262 0.570958
vt 0.301240 0.598162
vt 0.367843 0.292946
vt 0.026611 0.652611
vt 0.999906 0.163318
vt 0.905902 0.307548
vt 0.849128 0.210116
vt 0.843361 0.162712
vt 0.616598 0.358276
vt 0.551060 0.369496
vt 0.572036 0.327927
vt 0.901806 0.433287
vt 0.305577 0.453838
vt 0.394072 0.416426
vt 0.394305 0.442094
vt 0.620990 0.214588
vt 0.717901 0.199679
vt 0.641979 0.252724
vt 0.533508 0.203412
vt 0.579165 0.409048
vt 0.467322 0.431037
vt 0.373785 0.384604
vt 0.804379 0.210838
vt 0.761043 0.182514
vt 0.760469 0.472923
vt 0.546177 0.618827
vt 0.616499 0.544522
vt 0.584878 0.000094
vt 0.779911 0.033668
vt 0.607961 0.055085
vt 0.511248 0.752165
vt 0.229020 0.750688
vt 0.437266 0.696367
vt 0.807789 0.346986
vt 0.684120 0.474234
vt 0.757197 0.324886
vt 0.339845 0.644486
vt 0.539219 0.464107
vt 0.424227 0.532471
vt 0.425113 0.485491
vt 0.427718 0.193427
vt 0.602538 0.177421
vt 0.310653 0.503491
vt 0.660485 0.289488
vt 0.610184 0.293614
vt 0.503783 0.308652
vt 0.558256 0.299776
vt 0.463579 0.349563
vt 0.759343 0.310692
vt 0.999906 0.405790
vt 0.000094 0.404533
vt 0.228686 0.268167
vt 0.446212 0.317336
vt 0.511068 0.564096
vt 0.610162 0.470533
vt 0.492071 0.508121
vt 0.319922 0.621474
vt 0.670679 0.620987
vt 0.866430 0.117988
vt 0.438262 0.633866
vt 0.185707 0.878613
vt 0.271400 0.209160
vt 0.415910 0.091309
vt 0.449901 0.136237
vt 0.648181 0.846156
vt 0.527426 0.146831
vt 0.736985 0.682208
vt 0.899101 0.602689
vt 0.265693 0.077889
vt 0.626933 0.108627
vt 0.699414 0.145802
vt 0.305378 0.549789
vt 0.534340 0.265084
vt 0.734419 0.245038
vt 0.442617 0.553509
vt 0.392211 0.598372
vt 0.408214 0.565586
vt 0.481231 0.379932
vt 0.782627 0.096697
vt 0.700923 0.101181
vt 0.777248 0.121161
vt 0.689450 0.195025
vt 0.572927 0.278810
vn 0.614000 -0.120200 -0.780100
vn 0.737500 -0.139200 -0.660900
vn 0.588200 -0.429700 0.685100
vn 0.527300 0.239200 -0.815300
vn 0.948500 -0.311400 -0.058100
vn 0.587900 -0.426000 0.687700
vn 0.129100 0.606900 0.784200
vn 0.146500 0.475100 -0.867700
vn 0.959700 0.265300 0.093000
vn -0.934600 0.043000 0.353100
vn 0.990800 0.128200 -0.043200
vn 0.703700 0.359900 -0.612600
vn 0.341500 0.118300 -0.932400
vn 0.807700 0.102200 0.580600
vn 0.946800 0.157000 -0.281000
vn -0.704600 -0.038900 -0.708500
vn -0.958400 -0.071200 -0.276300
vn 0.107500 -0.008300 0.994200
vn -0.647900 0.102600 -0.754800
vn -0.889800 -0.456300 0.002000
vn -0.324200 0.199700 0.924700
vn -0.246700 -0.494800 0.833300
vn 0.690100 0.008900 0.723700
vn 0.985300 -0.169300 -0.023200
vn -0.336400 0.184100 -0.923600
vn 0.923700 0.150300 0.352400
vn 0.937500 -0.241700 -0.250500
vn 0.730700 0.307000 -0.609800
vn 0.927100 0.246500 -0.282300
vn 0.904500 0.422200 -0.059900
vn 0.850700 0.409000 0.330100
vn -0.993000 -0.011400 0.117500
vn -0.719400 -0.252100 -0.647300
vn 0.852000 -0.360900 -0.379300
vn 0.447100 0.317100 0.836400
vn -0.306700 -0.536300 0.786300
vn 0.305600 0.148300 -0.940500
vn 0.884300 0.099400 -0.456200
vn 0.030000 -0.022600 0.999300
vn 0.178300 0.127000 0.975700
vn 0.868900 0.494700 -0.015600
vn 0.281500 -0.048200 0.958400
vn -0.391600 0.914200 -0.104400
vn -0.119900 0.296900 0.947400
vn 0.234200 -0.355100 0.905000
vn -0.691600 -0.715000 -0.102600
vn -0.715300 -0.061700 0.696100
vn -0.696800 -0.035000 0.716400
vn -0.226000 -0.668300 0.708700
vn -0.340400 -0.203600 -0.918000
vn -0.044300 0.317400 -0.947300
vn 0.488600 0.302500 0.818400
vn 0.019200 -0.053800 0.998400
vn -0.688900 -0.716300 -0.111000
vn -0.581900 -0.033400 -0.812600
vn -0.883600 -0.338700 -0.323400
vn -0.945300 -0.159300 0.284700
vn -0.244700 0.061500 -0.967600
vn -0.611400 -0.023300 0.791000
vn -0.185100 0.056900 -0.981100
vn -0.943000 -0.258900 -0.209100
vn -0.735900 -0.159000 -0.658200
vn 0.464900 0.257800 -0.847000
vn -0.673100 -0.078600 0.735300
vn 0.451800 0.265300 0.851800
vn 0.106900 -0.008300 0.994200
vn 0.855800 -0.071600 -0.512400
vn 0.160800 0.244800 -0.956100
vn 0.539800 0.192600 0.819500
vn 0.780200 -0.191400 0.595500
vn 0.350100 0.120000 -0.929000
vn 0.819800 0.566700 0.082500
vn -0.681600 -0.266100 -0.681600
vn -0.889200 -0.453000 -0.063700
vn -0.951500 -0.136700 0.275700
vn -0.955700 -0.153400 0.251300
vn -0.333800 -0.156500 -0.929600
vn -0.957500 -0.133000 0.255900
vn -0.729000 -0.508400 -0.458300
vn -0.939900 -0.241000 -0.242000
vn 0.807700 0.102100 0.580600
vn 0.927100 0.246500 -0.282200
vn 0.946800 0.157000 -0.281100
s off
f 1/1/1 2/2/1 3/3/1
f 1/1/2 3/3/2 4/4/2
f 5/5/3 6/6/3 7/7/3
f 2/2/4 8/8/4 3/3/4
f 9/9/5 4/4/5 6/6/5
f 5/5/6 9/9/6 6/6/6
f 10/10/7 11/11/7 12/12/7
f 13/13/8 10/10/8 12/12/8
f 14/14/9 15/15/9 16/16/9
f 17/17/10 11/11/10 10/10/10
f 18/18/11 19/19/11 20/20/11
f 21/21/12 22/22/12 23/23/12
f 24/24/13 21/21/13 8/8/13
f 14/14/14 25/25/14 26/26/14
f 18/18/15 27/27/15 19/19/15
f 28/28/16 22/22/16 29/29/16
f 29/29/17 12/12/17 28/28/17
f 30/30/18 31/31/18 32/32/18
f 33/33/19 34/34/19 35/35/19
f 36/36/20 37/37/20 38/38/20
f 39/39/21 40/40/21 41/41/21
f 42/42/22 38/38/22 5/5/22
f 43/43/23 44/44/23 45/45/23
f 6/6/24 4/4/24 18/18/24
f 46/46/25 47/47/25 24/24/25
f 14/14/26 26/26/26 15/15/26
f 48/48/27 6/6/27 18/18/27
f 23/23/28 49/49/28 50/50/28
f 51/51/29 52/52/29 53/53/29
f 54/54/30 41/41/30 14/14/30
f 49/49/31 54/54/31 14/14/31
f 17/17/32 10/10/32 34/55/32
f 55/56/33 56/57/33 1/1/33
f 9/9/34 1/1/34 4/4/34
f 39/39/35 30/30/35 40/40/35
f 38/38/36 37/37/36 5/5/36
f 3/3/37 8/8/37 57/58/37
f 3/3/38 57/58/38 27/27/38
f 40/40/39 58/59/39 59/60/39
f 59/60/40 43/43/40 41/41/40
f 12/12/41 54/54/41 28/28/41
f 44/44/42 43/43/42 60/61/42
f 39/39/43 41/41/43 54/54/43
f 12/12/44 39/39/44 54/54/44
f 5/5/45 7/7/45 61/62/45
f 9/9/46 55/56/46 1/1/46
f 17/17/47 62/63/47 30/30/47
f 17/17/48 30/30/48 11/11/48
f 37/37/49 9/9/49 5/5/49
f 56/57/50 2/2/50 1/1/50
f 63/64/51 10/10/51 13/13/51
f 11/11/52 30/30/52 39/39/52
f 38/38/53 42/42/53 64/65/53
f 37/37/54 55/66/54 9/9/54
f 65/67/55 66/68/55 67/69/55
f 36/36/56 68/70/56 55/66/56
f 62/63/57 36/36/57 38/38/57
f 67/69/58 69/71/58 46/46/58
f 62/63/59 38/38/59 31/31/59
f 2/2/60 65/67/60 46/46/60
f 68/70/61 70/72/61 33/73/61
f 68/74/62 33/33/62 66/68/62
f 2/2/63 46/46/63 8/8/63
f 62/63/64 31/31/64 30/30/64
f 11/11/65 39/39/65 12/12/65
f 31/31/66 64/65/66 32/32/66
f 4/4/67 3/3/67 18/18/67
f 71/75/68 72/76/68 69/71/68
f 41/41/69 43/43/69 25/25/69
f 6/6/70 48/48/70 73/77/70
f 8/8/71 21/21/71 74/78/71
f 54/54/72 49/49/72 75/79/72
f 68/74/73 56/57/73 55/56/73
f 36/36/74 55/66/74 37/37/74
f 70/72/75 17/17/75 33/73/75
f 70/72/76 36/36/76 62/63/76
f 56/57/77 65/67/77 2/2/77
f 70/72/78 62/63/78 17/17/78
f 56/57/79 68/74/79 65/67/79
f 70/72/80 68/70/80 36/36/80
f 32/32/66 58/59/66 40/40/66
f 32/32/66 64/65/66 58/59/66
f 64/65/66 42/42/66 58/59/66
f 59/60/39 76/80/39 60/61/39
f 59/60/39 58/59/39 76/80/39
f 58/59/39 42/42/39 77/81/39
f 78/82/42 60/61/42 76/80/42
f 61/62/42 78/82/42 77/81/42
f 7/7/42 44/44/42 78/82/42
f 15/15/26 20/20/26 79/83/26
f 15/15/26 26/26/26 20/20/26
f 26/26/26 48/48/26 20/20/26
f 45/45/23 73/77/23 48/48/23
f 45/45/23 44/44/23 73/77/23
f 44/44/23 7/7/23 73/77/23
f 26/26/81 45/45/81 48/48/81
f 26/26/81 25/25/81 45/45/81
f 25/25/81 43/43/81 45/45/81
f 67/69/55 35/35/55 71/75/55
f 67/69/55 66/68/55 35/35/55
f 66/68/55 33/33/55 35/35/55
f 35/35/19 80/84/19 81/85/19
f 35/35/19 34/34/19 80/84/19
f 34/34/19 10/10/19 63/64/19
f 69/71/68 47/47/68 46/46/68
f 69/71/68 72/76/68 47/47/68
f 72/76/68 29/29/68 47/47/68
f 82/86/51 13/13/51 29/29/51
f 81/85/51 82/86/51 72/76/51
f 80/84/51 63/64/51 82/86/51
f 53/53/82 16/16/82 79/83/82
f 53/53/82 52/52/82 16/16/82
f 50/50/82 49/49/82 16/16/82
f 24/24/25 83/87/25 21/21/25
f 24/24/25 47/47/25 83/87/25
f 47/47/25 29/29/25 83/87/25
f 19/19/83 53/53/83 79/83/83
f 19/19/83 27/27/83 53/53/83
f 27/27/83 57/58/83 53/53/83
f 84/88/28 50/50/28 52/52/28
f 74/78/28 84/88/28 51/51/28
f 21/21/28 23/23/28 84/88/28
f 23/23/12 75/79/12 49/49/12
f 23/23/12 22/22/12 75/79/12
f 22/22/12 28/28/12 75/79/12
f 29/29/8 13/13/8 12/12/8
f 16/16/9 49/49/9 14/14/9
f 15/15/9 79/83/9 16/16/9
f 20/20/11 48/48/11 18/18/11
f 19/19/11 79/83/11 20/20/11
f 46/46/13 24/24/13 8/8/13
f 83/87/16 29/29/16 22/22/16
f 22/22/16 21/21/16 83/87/16
f 40/40/18 30/30/18 32/32/18
f 84/88/28 23/23/28 50/50/28
f 57/58/82 51/51/82 53/53/82
f 33/73/32 17/17/32 34/55/32
f 18/18/38 3/3/38 27/27/38
f 40/40/40 59/60/40 41/41/40
f 78/82/42 44/44/42 60/61/42
f 42/42/45 5/5/45 61/62/45
f 82/86/51 63/64/51 13/13/51
f 31/31/53 38/38/53 64/65/53
f 46/46/58 65/67/58 67/69/58
f 67/69/58 71/75/58 69/71/58
f 65/67/62 68/74/62 66/68/62
f 14/14/69 41/41/69 25/25/69
f 7/7/70 6/6/70 73/77/70
f 57/58/71 8/8/71 74/78/71
f 28/28/72 54/54/72 75/79/72
f 43/43/39 59/60/39 60/61/39
f 76/80/39 58/59/39 77/81/39
f 77/81/42 78/82/42 76/80/42
f 42/42/42 61/62/42 77/81/42
f 61/62/42 7/7/42 78/82/42
f 71/75/19 35/35/19 81/85/19
f 80/84/19 34/34/19 63/64/19
f 72/76/51 82/86/51 29/29/51
f 71/75/51 81/85/51 72/76/51
f 81/85/51 80/84/51 82/86/51
f 52/52/82 50/50/82 16/16/82
f 51/51/28 84/88/28 52/52/28
f 57/58/28 74/78/28 51/51/28
f 74/78/28 21/21/28 84/88/28
