# Blender v2.76 (sub 0) OBJ File: 'stone.blend'
# www.blender.org
o Sphere_Sphere.010
v 2.503209 -0.270373 1.641290
v 0.019646 0.304888 -2.740679
v -1.680411 1.864768 1.661862
v -4.133201 2.004815 0.457256
v -1.632343 -0.515048 1.082815
v -1.247880 2.329444 -0.607339
v -3.689884 0.546784 -0.587678
v -2.317837 0.142877 1.982693
v -1.879553 2.588683 0.561841
v 3.899860 0.341557 0.823042
v 1.679332 -0.127035 2.614271
v -0.632532 1.214385 2.906337
v 3.169126 -0.447287 -0.081128
v 1.242100 -0.612824 -1.023199
v -1.649289 -0.066859 -1.107703
v 2.619945 -0.400691 -2.066530
v 0.095302 1.062333 -2.576054
v 1.971888 0.619101 -3.170203
v -3.665810 1.082209 1.522918
v -0.141632 2.501114 1.678588
v 3.242450 1.086525 -2.136699
v -0.865370 -0.612861 2.711957
v 1.959798 1.491475 2.799705
v 0.251157 2.118782 -1.759177
v 4.393107 1.075295 0.813792
v 2.022372 2.273513 1.821380
v 4.230115 1.194835 -0.346637
v -1.949333 1.097371 3.044263
v 1.445469 2.612689 0.234122
v 2.842046 1.817171 -1.524078
v 3.333781 1.956797 0.385259
v 2.096639 1.250258 -2.090189
v -1.469923 2.597062 -0.559404
v -0.143720 2.500914 2.110064
v 3.078596 0.293089 2.201631
v 3.916556 0.471608 -0.826506
v -2.243745 1.303248 -1.746671
v -3.566109 1.710749 1.963012
v -0.970785 0.047361 2.903591
v 1.272575 -0.716507 0.859303
v 1.006841 0.353586 -2.864068
v -2.811336 0.102643 0.250714
v 1.819565 0.682220 2.706987
v 0.663633 1.352930 2.853020
v 0.523400 0.543675 2.760304
v -0.801659 0.630873 2.904964
v 0.354273 -0.039837 2.758931
v 1.749449 0.277592 2.660629
v 1.991085 1.882494 2.310542
v 3.176453 1.283385 1.806748
v 3.207740 1.674405 1.317586
v 3.863444 1.516047 0.599525
v 2.678076 2.115155 1.103319
v 3.735852 0.684192 1.507712
v 2.519197 0.892282 2.500668
v 2.378964 0.083027 2.407951
v 1.889681 1.086848 2.753346
v 2.134323 0.584937 2.580649
v -3.911542 1.275800 -0.065211
v -1.835118 0.425836 -1.664178
v -1.112049 0.804068 -2.243675
v -2.966814 0.925016 -1.167175
v -3.188473 1.654032 -0.644707
v -0.498362 2.224113 -1.183258
v 0.173229 1.590557 -2.167616
v -0.576290 1.695889 -1.591697
v -2.690541 2.167130 -0.075042
v 3.536081 1.506003 -0.935358
v 2.143757 2.214930 -0.644978
v 2.389625 2.284743 0.309690
v 3.781948 1.575816 0.019311
v 3.087913 1.886984 -0.569410
v -1.074222 1.182790 -2.161362
v -1.745812 1.816346 -1.177005
v -2.716109 1.478640 -1.195689
v -3.660836 1.829423 -0.093726
v -2.703325 1.822884 -0.635365
v 1.794613 2.413809 -0.205428
v 0.848313 2.365736 -0.762528
v 1.546602 1.967976 -1.641628
v -0.609383 2.357922 -1.159291
v -0.012227 2.604876 -0.162641
v 2.492902 2.016051 -1.084528
v 1.670608 2.190893 -0.923528
vt 0.811874 0.729006
vt 0.737924 0.719705
vt 0.765818 0.653900
vt 0.846802 0.592644
vt 0.566435 0.266504
vt 0.765986 0.267593
vt 0.610477 0.336016
vt 0.713243 0.673069
vt 0.999903 0.643815
vt 0.956515 0.430151
vt 0.668475 0.081254
vt 0.214868 0.723064
vt 0.307469 0.578978
vt 0.436934 0.644301
vt 0.393196 0.715410
vt 0.592117 0.478899
vt 0.646857 0.486380
vt 0.656588 0.536648
vt 0.256288 0.559762
vt 0.810110 0.531462
vt 0.758465 0.512774
vt 0.752357 0.460788
vt 0.609827 0.690007
vt 0.551923 0.684841
vt 0.609894 0.628078
vt 0.625142 0.721191
vt 0.575735 0.449988
vt 0.673171 0.443453
vt 0.760488 0.579944
vt 0.496029 0.668606
vt 0.501687 0.686751
vt 0.371051 0.488718
vt 0.388991 0.419509
vt 0.411405 0.443294
vt 0.358773 0.933673
vt 0.269058 0.845357
vt 0.441373 0.865075
vt 0.263475 0.354180
vt 0.455935 0.213969
vt 0.378743 0.382761
vt 0.415276 0.562029
vt 0.433170 0.467385
vt 0.491854 0.517792
vt 0.514335 0.348156
vt 0.558245 0.424150
vt 0.583329 0.385620
vt 0.650581 0.403540
vt 0.642163 0.751164
vt 0.572801 0.726768
vt 0.821603 0.390877
vt 0.609877 0.566190
vt 0.639100 0.577895
vt 0.697628 0.605511
vt 0.668716 0.590952
vt 0.720517 0.565875
vt 0.499856 0.537779
vt 0.096256 0.646934
vt 0.846262 0.869470
vt 0.707705 0.758432
vt 0.724557 0.620724
vt 0.472554 0.408250
vt 0.496426 0.442333
vt 0.549478 0.406038
vt 0.559860 0.338035
vt 0.297395 0.449117
vt 0.302810 0.770281
vt 0.450834 0.384726
vt 0.371416 0.000097
vt 0.662379 0.787652
vt 0.550055 0.864931
vt 0.589836 0.804629
vt 0.041472 0.230325
vt 0.578434 0.782028
vt 0.139630 0.440071
vt 0.000097 0.558560
vt 0.580108 0.933673
vt 0.503407 0.807545
vt 0.497994 0.747634
vt 0.700994 0.344440
vt 0.666255 0.653575
vt 0.553974 0.620383
vt 0.539242 0.386735
vt 0.527445 0.367248
vt 0.555107 0.374514
vt 0.709662 0.503786
vt 0.380020 0.795288
vt 0.447712 0.806742
vt 0.415369 0.762152
vt 0.558119 0.692072
vt 0.653107 0.615992
vn 0.666000 -0.310800 -0.678200
vn 0.759500 -0.343900 -0.552200
vn 0.518200 -0.808000 0.280300
vn 0.101300 0.853800 -0.510700
vn 0.757400 -0.651500 -0.043700
vn 0.519300 -0.806100 0.283600
vn -0.253000 0.927100 0.276400
vn -0.223100 0.919200 -0.324400
vn 0.320900 0.943300 0.085000
vn -0.937800 -0.086700 0.336300
vn 0.642300 0.766400 -0.011300
vn 0.071000 0.957400 -0.279800
vn 0.136900 0.593200 -0.793300
vn 0.551000 0.634300 0.542300
vn 0.535900 0.820700 -0.198000
vn -0.598300 -0.369100 -0.711200
vn -0.762400 -0.581900 -0.282900
vn 0.107000 -0.033400 0.993700
vn -0.684800 0.275300 -0.674700
vn -0.071200 -0.997100 -0.026400
vn -0.441100 0.587500 0.678400
vn 0.190000 -0.935200 0.298700
vn 0.638700 0.229700 0.734400
vn 0.922300 -0.385900 -0.021100
vn -0.438500 0.589300 -0.678500
vn 0.530600 0.788700 0.310600
vn 0.816600 -0.551100 -0.171500
vn 0.137900 0.938900 -0.315300
vn 0.335200 0.929400 -0.154300
vn 0.104500 0.994500 0.001000
vn 0.091500 0.980100 0.176200
vn -0.929500 -0.354700 0.100600
vn -0.195100 -0.878400 -0.436200
vn 0.672700 -0.711600 -0.202800
vn -0.027500 0.876200 0.481100
vn 0.179000 -0.949000 0.259700
vn 0.064200 0.661600 -0.747100
vn 0.630800 0.671600 -0.388700
vn 0.053900 -0.122900 0.991000
vn -0.022100 0.532200 0.846300
vn 0.036900 0.999100 0.020900
vn 0.323800 -0.162900 0.932000
vn -0.382100 0.924100 -0.001400
vn -0.321700 0.763200 0.560500
vn 0.374500 -0.817500 0.437500
vn 0.111700 -0.992300 -0.054200
vn -0.571200 -0.501800 0.649500
vn -0.609500 -0.387500 0.691600
vn 0.228000 -0.955700 0.186300
vn -0.011200 -0.737700 -0.675100
vn -0.276400 0.821700 -0.498500
vn 0.006300 0.873800 0.486300
vn 0.087400 -0.264800 0.960300
vn 0.112800 -0.992000 -0.056500
vn -0.492700 -0.306100 -0.814600
vn -0.176400 -0.964600 -0.196000
vn -0.529300 -0.824600 0.199700
vn -0.303900 0.231200 -0.924200
vn -0.551100 -0.312600 0.773700
vn -0.244200 0.229200 -0.942300
vn -0.321100 -0.933700 -0.158200
vn -0.365800 -0.754100 -0.545500
vn 0.042500 0.860500 -0.507800
vn -0.496700 -0.552600 0.669300
vn 0.019000 0.836800 0.547200
vn 0.106300 -0.033200 0.993800
vn 0.875500 -0.061500 -0.479300
vn -0.130600 0.790700 -0.598100
vn 0.163300 0.765500 0.622400
vn 0.751700 -0.499900 0.430200
vn 0.141300 0.600300 -0.787200
vn -0.020300 0.998300 0.054800
vn -0.153700 -0.882800 -0.443800
vn -0.073200 -0.995900 -0.053700
vn -0.590200 -0.780800 0.204800
vn -0.551500 -0.815400 0.176100
vn -0.063100 -0.646900 -0.759900
vn -0.604100 -0.773900 0.190100
vn 0.023400 -0.979700 -0.199100
vn -0.350400 -0.918100 -0.185100
vn -0.598300 -0.369000 -0.711200
s off
f 16/1/1 18/2/1 21/3/1
f 16/1/2 21/3/2 36/4/2
f 1/5/3 10/6/3 35/7/3
f 18/2/4 32/8/4 21/3/4
f 13/9/5 36/4/5 10/10/5
f 1/5/6 13/11/6 10/6/6
f 4/12/7 38/13/7 9/14/7
f 67/15/8 4/12/8 9/14/8
f 26/16/9 53/17/9 70/18/9
f 19/19/10 38/13/10 4/12/10
f 27/20/11 71/21/11 52/22/11
f 24/23/12 81/24/12 79/25/12
f 65/26/13 24/23/13 32/8/13
f 26/16/14 49/27/14 51/28/14
f 27/20/15 68/29/15 71/21/15
f 33/30/16 81/24/16 6/31/16
f 6/31/17 9/14/17 33/30/17
f 28/32/18 39/33/18 46/34/18
f 7/35/19 59/36/19 62/37/19
f 5/38/20 40/39/20 22/40/20
f 3/41/21 12/42/21 34/43/21
f 11/44/22 22/40/22 1/5/22
f 23/45/23 55/46/23 50/47/23
f 10/10/24 36/4/24 27/20/24
f 17/48/25 66/49/25 65/26/25
f 26/16/26 51/28/26 53/17/26
f 25/50/27 10/10/27 27/20/27
f 79/25/28 29/51/28 78/52/28
f 83/53/29 69/54/29 72/55/29
f 20/56/30 34/43/30 26/16/30
f 29/51/31 20/56/31 26/16/31
f 19/19/32 4/12/32 59/57/32
f 14/58/33 41/59/33 16/1/33
f 13/9/34 16/1/34 36/4/34
f 3/41/35 28/32/35 12/42/35
f 22/40/36 40/39/36 1/5/36
f 21/3/37 32/8/37 30/60/37
f 21/3/38 30/60/38 68/29/38
f 12/42/39 45/61/39 44/62/39
f 44/62/40 23/45/40 34/43/40
f 9/14/41 20/56/41 33/30/41
f 55/46/42 23/45/42 57/63/42
f 3/41/43 34/43/43 20/56/43
f 9/14/44 3/41/44 20/56/44
f 1/5/45 35/7/45 56/64/45
f 13/9/46 14/58/46 16/1/46
f 19/19/47 8/65/47 28/32/47
f 19/19/48 28/32/48 38/13/48
f 40/39/49 13/11/49 1/5/49
f 41/59/50 18/2/50 16/1/50
f 76/66/51 4/12/51 67/15/51
f 38/13/52 28/32/52 3/41/52
f 22/40/53 11/44/53 47/67/53
f 40/39/54 14/68/54 13/11/54
f 2/69/55 60/70/55 61/71/55
f 5/38/56 15/72/56 14/68/56
f 8/65/57 5/38/57 22/40/57
f 61/71/58 73/73/58 17/48/58
f 8/65/59 22/40/59 39/33/59
f 18/2/60 2/69/60 17/48/60
f 15/72/61 42/74/61 7/75/61
f 15/76/62 7/35/62 60/70/62
f 18/2/63 17/48/63 32/8/63
f 8/65/64 39/33/64 28/32/64
f 38/13/65 3/41/65 9/14/65
f 39/33/66 47/67/66 46/34/66
f 36/4/67 21/3/67 27/20/67
f 37/77/68 74/78/68 73/73/68
f 34/43/69 23/45/69 49/27/69
f 10/6/70 25/50/70 54/79/70
f 32/8/71 24/23/71 80/80/71
f 20/56/72 29/51/72 82/81/72
f 15/76/73 41/59/73 14/58/73
f 5/38/74 14/68/74 40/39/74
f 42/74/75 19/19/75 7/75/75
f 42/74/76 5/38/76 8/65/76
f 41/59/77 2/69/77 18/2/77
f 42/74/78 8/65/78 19/19/78
f 41/59/79 15/76/79 2/69/79
f 42/74/80 15/72/80 5/38/80
f 46/34/66 45/61/66 12/42/66
f 46/34/66 47/67/66 45/61/66
f 47/67/66 11/44/66 45/61/66
f 44/62/39 43/82/39 57/63/39
f 44/62/39 45/61/39 43/82/39
f 45/61/39 11/44/39 48/83/39
f 58/84/42 57/63/42 43/82/42
f 56/64/42 58/84/42 48/83/42
f 35/7/42 55/46/42 58/84/42
f 53/17/26 52/22/26 31/85/26
f 53/17/26 51/28/26 52/22/26
f 51/28/26 25/50/26 52/22/26
f 50/47/23 54/79/23 25/50/23
f 50/47/23 55/46/23 54/79/23
f 55/46/23 35/7/23 54/79/23
f 51/28/14 50/47/14 25/50/14
f 51/28/14 49/27/14 50/47/14
f 49/27/14 23/45/14 50/47/14
f 61/71/55 62/37/55 37/77/55
f 61/71/55 60/70/55 62/37/55
f 60/70/55 7/35/55 62/37/55
f 62/37/19 63/86/19 75/87/19
f 62/37/19 59/36/19 63/86/19
f 59/36/19 4/12/19 76/66/19
f 73/73/68 66/49/68 17/48/68
f 73/73/68 74/78/68 66/49/68
f 74/78/68 6/31/68 66/49/68
f 77/88/51 67/15/51 6/31/51
f 75/87/51 77/88/51 74/78/51
f 63/86/51 76/66/51 77/88/51
f 72/55/29 70/18/29 31/85/29
f 72/55/29 69/54/29 70/18/29
f 78/52/29 29/51/29 70/18/29
f 65/26/25 64/89/25 24/23/25
f 65/26/25 66/49/25 64/89/25
f 66/49/25 6/31/25 64/89/25
f 71/21/15 72/55/15 31/85/15
f 71/21/15 68/29/15 72/55/15
f 68/29/15 30/60/15 72/55/15
f 84/90/28 78/52/28 69/54/28
f 80/80/28 84/90/28 83/53/28
f 24/23/28 79/25/28 84/90/28
f 79/25/12 82/81/12 29/51/12
f 79/25/12 81/24/12 82/81/12
f 81/24/12 33/30/12 82/81/12
f 6/31/8 67/15/8 9/14/8
f 70/18/9 29/51/9 26/16/9
f 53/17/9 31/85/9 70/18/9
f 52/22/11 25/50/11 27/20/11
f 71/21/11 31/85/11 52/22/11
f 17/48/13 65/26/13 32/8/13
f 64/89/81 6/31/81 81/24/81
f 81/24/16 24/23/16 64/89/16
f 12/42/18 28/32/18 46/34/18
f 84/90/28 79/25/28 78/52/28
f 30/60/29 83/53/29 72/55/29
f 7/75/32 19/19/32 59/57/32
f 27/20/38 21/3/38 68/29/38
f 12/42/40 44/62/40 34/43/40
f 58/84/42 55/46/42 57/63/42
f 11/44/45 1/5/45 56/64/45
f 77/88/51 76/66/51 67/15/51
f 39/33/53 22/40/53 47/67/53
f 17/48/58 2/69/58 61/71/58
f 61/71/58 37/77/58 73/73/58
f 2/69/62 15/76/62 60/70/62
f 26/16/69 34/43/69 49/27/69
f 35/7/70 10/6/70 54/79/70
f 30/60/71 32/8/71 80/80/71
f 33/30/72 20/56/72 82/81/72
f 23/45/39 44/62/39 57/63/39
f 43/82/39 45/61/39 48/83/39
f 48/83/42 58/84/42 43/82/42
f 11/44/42 56/64/42 48/83/42
f 56/64/42 35/7/42 58/84/42
f 37/77/19 62/37/19 75/87/19
f 63/86/19 59/36/19 76/66/19
f 74/78/51 77/88/51 6/31/51
f 37/77/51 75/87/51 74/78/51
f 75/87/51 63/86/51 77/88/51
f 69/54/29 78/52/29 70/18/29
f 83/53/28 84/90/28 69/54/28
f 30/60/28 80/80/28 83/53/28
f 80/80/28 24/23/28 84/90/28
